<?xml version="1.0" encoding="UTF-8" standalone="no"?><!DOCTYPE svg PUBLIC "-//W3C//DTD SVG 1.1//EN" "http://www.w3.org/Graphics/SVG/1.1/DTD/svg11.dtd"><svg width="100%" height="100%" viewBox="0 0 318 80" version="1.1" xmlns="http://www.w3.org/2000/svg" xmlns:xlink="http://www.w3.org/1999/xlink" xml:space="preserve" xmlns:serif="http://www.serif.com/" style="fill-rule:evenodd;clip-rule:evenodd;stroke-linejoin:round;stroke-miterlimit:2;"><g id="Layer_2"><g id="Layer_1-2"><path d="M38.88,0c-21.44,0 -38.88,17.73 -38.88,39.52c0,21.79 17.44,39.53 38.88,39.53c21.44,-0 38.89,-17.73 38.89,-39.53c-0,-21.8 -17.44,-39.52 -38.89,-39.52Zm-0,78.19c-21,0 -38,-17.35 -38,-38.67c-0,-21.32 17.04,-38.67 38,-38.67c20.96,0 38,17.35 38,38.67c-0,21.32 -17.03,38.67 -38,38.67Z" style="fill-rule:nonzero;"/><path d="M38.88,1.78c-20.46,0 -37.12,16.93 -37.12,37.74c-0,20.81 16.66,37.74 37.12,37.74c20.46,0 37.12,-16.93 37.12,-37.74c0,-20.81 -16.64,-37.74 -37.12,-37.74Zm0,75.14c-20.27,0 -36.78,-16.78 -36.78,-37.4c-0,-20.62 16.51,-37.39 36.78,-37.39c20.27,-0 36.79,16.77 36.79,37.39c0,20.62 -16.5,37.4 -36.79,37.4Z" style="fill-rule:nonzero;"/><path d="M38.88,13c-14.192,0.103 -25.812,11.807 -25.812,25.999c0,0.094 0.001,0.187 0.002,0.281c-0.001,0.08 -0.001,0.16 -0.001,0.241c-0,14.192 11.62,25.896 25.811,25.999c14.199,-0.092 25.831,-11.8 25.831,-25.999c0,-0.081 -0,-0.161 -0.001,-0.241c0.001,-0.094 0.002,-0.187 0.002,-0.281c-0,-14.199 -11.633,-25.907 -25.832,-25.999Zm-2.58,42.12l-20.08,-7.12c0.09,-0.22 0.13,-0.3 0.15,-0.34c0.005,-0.037 0.005,-0.073 0,-0.11c0.38,-1.17 1.32,-2.58 2.52,-2.25c1.2,0.33 1.59,1.26 3.52,1c1.66,-0.19 1.32,-2.28 1.32,-2.52c0,-0.24 0.48,-0.43 0.74,-0.58c0.26,-0.15 0.39,-0.74 0.39,-0.93c0,-0.19 0.23,-0.58 0.23,-0.89c0,-0.31 0.47,-0.74 0.47,-0.74c0,-0 1.61,0.26 1.59,-0.66c0,-1.11 -1.15,-3.19 -0.79,-4.05c1.5,-3.6 1.37,-6 0.37,-7.95l9.53,3.66l0.04,23.48Zm1.69,-0l0,-23.43l20.41,-7.83l0,24l-20.41,7.26Zm2.3,-5.56l15.88,-6.23l0,-0.85l-15.88,6.23l0,0.85Zm0,-2.13l15.88,-6.24l0,-0.84l-15.88,6.22l0,0.86Zm0,-2.14l15.88,-6.23l0,-0.85l-15.88,6.23l0,0.85Zm0,-2.13l15.88,-6.23l0,-0.85l-15.88,6.23l0,0.85Zm0,-2.14l15.88,-6.23l0,-0.79l-15.88,6.18l0,0.84Zm0,-2.13l15.88,-6.22l0,-0.86l-15.88,6.19l0,0.89Zm0,-2.13l15.88,-6.23l0,-0.85l-15.88,6.23l0,0.85Zm0,-2.13l15.88,-6.23l0,-0.85l-15.88,6.23l0,0.85Z"/><path d="M68.51,39.53l4.24,0.33l-0.08,1.06l-3.33,-0.27l-0.14,1.73l-0.9,-0.07l0.21,-2.78Zm-0.94,-8.32l4.71,1.43l0,0.06l-3.91,3l-0.2,-1.09l0.56,-0.39l-0.32,-1.77l-0.66,-0.17l-0.18,-1.07Zm1.62,1.39l0.21,1.15l1.21,-0.81l-1.42,-0.34Zm-11.7,-16.55l2.74,-3.3l2.05,1.76l-0.56,0.68l-1.29,-1.09l-0.49,0.59l1.1,0.94l-0.56,0.68l-1.1,-0.94l-0.54,0.65l1.3,1.12l-0.58,0.69l-2.07,-1.78Zm-10.57,-5.43l3.49,-3.52l0.06,0l0.7,4.92l-1,-0.34l-0.1,-0.68l-1.69,-0.56l-0.46,0.51l-1,-0.33Zm2,-0.78l1.08,0.36l-0.12,-1.46l-0.96,1.1Zm-3.23,0.67l-0.09,0l-1,-4.84l1.07,0.25l0.5,2.53l1.52,-2.07l1,0.22l-3,3.91Zm-6.34,-3.16c0.018,-0.306 0.097,-0.605 0.23,-0.88c0.133,-0.272 0.32,-0.513 0.55,-0.71c0.216,-0.196 0.472,-0.343 0.75,-0.43c0.276,-0.094 0.569,-0.128 0.86,-0.1c0.292,0.022 0.577,0.1 0.84,0.23c0.262,0.13 0.494,0.314 0.68,0.54c0.194,0.225 0.341,0.487 0.43,0.77c0.095,0.297 0.129,0.61 0.1,0.92c-0.014,0.258 -0.071,0.511 -0.17,0.75c-0.091,0.232 -0.223,0.445 -0.39,0.63c-0.225,0.261 -0.51,0.463 -0.83,0.59c-0.317,0.128 -0.659,0.183 -1,0.16c-0.289,-0.029 -0.57,-0.11 -0.83,-0.24c-0.266,-0.142 -0.498,-0.34 -0.68,-0.58c-0.196,-0.229 -0.345,-0.494 -0.44,-0.78c-0.084,-0.282 -0.118,-0.576 -0.1,-0.87Zm1.07,0.08c-0.045,0.354 0.048,0.713 0.26,1c0.205,0.278 0.531,0.442 0.877,0.442c0.285,0 0.559,-0.112 0.763,-0.312c0.241,-0.248 0.383,-0.575 0.4,-0.92c0.043,-0.354 -0.05,-0.712 -0.26,-1c-0.188,-0.253 -0.476,-0.413 -0.79,-0.44c-0.316,-0.023 -0.628,0.094 -0.85,0.32c-0.239,0.245 -0.381,0.568 -0.4,0.91Zm-5.42,2.34l2,-3.57l-2,0.15l0.1,-0.91l3.46,-0.26l-1.91,3.55l2.16,-0.16l-0.09,0.93l-3.72,0.27Zm-4.26,0.76l1.45,-4.77l0.06,0l2.9,4l-1.04,0.24l-0.37,-0.58l-1.74,0.26l-0.17,0.67l-1.09,0.18Zm1.42,-1.63l1.13,-0.2l-0.78,-1.24l-0.35,1.44Zm-4.36,2.74l-1.33,-4.1l1.07,-0.36c0.266,-0.094 0.541,-0.162 0.82,-0.2c0.192,-0.021 0.386,-0 0.57,0.06c0.184,0.051 0.353,0.147 0.49,0.28c0.135,0.129 0.235,0.291 0.29,0.47c0.079,0.244 0.079,0.506 0,0.75c-0.079,0.248 -0.224,0.469 -0.42,0.64l1.83,1.34l-1.12,0.38l-1.62,-1.24l-0.14,0.05l0.52,1.61l-0.96,0.32Zm0.04,-3.73l-0.2,0l0.36,1.19l0.25,-0.1c0.209,-0.053 0.395,-0.173 0.53,-0.34c0.06,-0.094 0.092,-0.204 0.092,-0.316c-0,-0.237 -0.143,-0.452 -0.362,-0.544c-0.229,-0.027 -0.462,0.011 -0.67,0.11Zm-3.41,5.34l-1.9,-3.86l1.21,-0.62c0.347,-0.204 0.748,-0.298 1.15,-0.27c0.316,0.047 0.585,0.256 0.71,0.55c0.097,0.18 0.129,0.389 0.09,0.59c-0.053,0.215 -0.168,0.409 -0.33,0.56c0.488,-0.161 1.025,0.079 1.23,0.55c0.185,0.329 0.185,0.731 0,1.06c-0.268,0.402 -0.647,0.718 -1.09,0.91l-1.07,0.53Zm-0.3,-2.77l0.31,-0.15c0.155,-0.072 0.285,-0.191 0.37,-0.34c0.069,-0.128 0.069,-0.282 0,-0.41c-0.048,-0.131 -0.163,-0.226 -0.3,-0.25c-0.179,0 -0.356,0.048 -0.51,0.14l-0.29,0.14l0.42,0.87Zm0.8,1.64l0.39,-0.19c0.162,-0.076 0.295,-0.202 0.38,-0.36c0.069,-0.146 0.069,-0.314 0,-0.46c-0.061,-0.139 -0.183,-0.243 -0.33,-0.28c-0.173,-0.021 -0.348,0.014 -0.5,0.1l-0.39,0.2l0.45,0.99Zm-6,2.17c-0.174,-0.251 -0.299,-0.533 -0.37,-0.83c-0.06,-0.297 -0.06,-0.603 0,-0.9c0.046,-0.292 0.151,-0.571 0.31,-0.82c0.161,-0.247 0.368,-0.461 0.61,-0.63c0.486,-0.338 1.087,-0.471 1.67,-0.37c0.291,0.049 0.568,0.162 0.81,0.33c0.254,0.172 0.472,0.393 0.64,0.65c0.146,0.211 0.257,0.444 0.33,0.69c0.07,0.237 0.1,0.483 0.09,0.73c-0.013,0.351 -0.109,0.693 -0.28,1c-0.304,0.573 -0.846,0.983 -1.48,1.12c-0.284,0.055 -0.576,0.055 -0.86,0c-0.295,-0.047 -0.575,-0.16 -0.82,-0.33c-0.232,-0.175 -0.429,-0.392 -0.58,-0.64l-0.07,0Zm0.88,-0.62c0.183,0.288 0.469,0.496 0.8,0.58c0.305,0.091 0.636,0.032 0.89,-0.16c0.261,-0.179 0.43,-0.465 0.46,-0.78c0.048,-0.353 -0.042,-0.711 -0.25,-1c-0.183,-0.294 -0.474,-0.506 -0.81,-0.59c-0.305,-0.091 -0.636,-0.032 -0.89,0.16c-0.261,0.184 -0.429,0.473 -0.46,0.79c-0.026,0.362 0.089,0.72 0.32,1l-0.06,0Zm-4.48,7.33l-1.79,-4.66l0,-0.05l4.72,1.31l-0.72,0.83l-0.65,-0.21l-1.17,1.35l0.27,0.63l-0.66,0.8Zm0.08,-2.16l0.76,-0.87l-1.37,-0.47l0.61,1.34Zm-2.18,5.31l-1.62,-3.72l-1.07,1.65l-0.65,-0.63l1.91,-2.95l1.61,3.72l1.19,-1.84l0.66,0.64l-2.03,3.13Zm-2.49,5.45l-3.94,-1.6l0.42,-1c0.1,-0.269 0.227,-0.527 0.38,-0.77c0.111,-0.158 0.25,-0.293 0.41,-0.4c0.159,-0.107 0.34,-0.175 0.53,-0.2c0.186,-0.022 0.375,0.002 0.55,0.07c0.231,0.099 0.429,0.262 0.57,0.47c0.135,0.227 0.207,0.486 0.21,0.75l2.19,-0.56l-0.44,1.12l-2,0.47l-0.06,0.14l1.55,0.63l-0.37,0.88Zm-2.74,-2.41l-0.06,0.17l1.06,0.44l0.08,-0.2c0.084,-0.188 0.112,-0.396 0.08,-0.6c-0.05,-0.169 -0.176,-0.306 -0.34,-0.37c-0.148,-0.088 -0.332,-0.088 -0.48,0c-0.162,0.152 -0.279,0.346 -0.34,0.56Zm1.62,7.09l-3.79,-3.23l0,-0.05l4.77,-1.13l-0.25,1.08l-0.67,0.13l-0.41,1.75l0.54,0.43l-0.19,1.02Zm-0.94,-1.94l0.27,-1.13l-1.43,0.25l1.16,0.88Zm0.74,3.66l-3.33,-0.45l-0.18,1.45l-0.91,-0.15l0.52,-3.85l0.88,0.12l-0.18,1.39l3.34,0.49l-0.14,1Zm-0.06,5.66l-4.36,0.13l0,-0.1l2.41,-2.83l-2.41,0.06l0,-1l4.41,-0.11l0,0.09l-2.41,2.86l2.32,-0.06l0.04,0.96Zm0.64,3.44l-4.18,0.78l-0.48,-2.69l0.81,-0.19l0.3,1.68l0.76,-0.14l-0.21,-1.41l0.8,-0.13l0.26,1.44l0.83,-0.15l-0.31,-1.71l0.88,-0.16l0.54,2.68Zm-2.67,1.55c-0.121,0.21 -0.202,0.441 -0.24,0.68c-0.045,0.208 -0.045,0.422 0,0.63c0.08,0.336 0.303,0.621 0.61,0.78c0.31,0.156 0.671,0.181 1,0.07c0.343,-0.081 0.637,-0.302 0.81,-0.61c0.173,-0.304 0.209,-0.668 0.1,-1c-0.064,-0.22 -0.173,-0.424 -0.32,-0.6c-0.163,-0.204 -0.355,-0.382 -0.57,-0.53l1.1,-0.26c0.173,0.15 0.321,0.325 0.44,0.52c0.265,0.418 0.398,0.906 0.38,1.4c-0.001,0.254 -0.052,0.506 -0.15,0.74c-0.115,0.327 -0.312,0.619 -0.57,0.85c-0.258,0.24 -0.57,0.415 -0.91,0.51c-0.291,0.089 -0.597,0.12 -0.9,0.09c-0.291,-0.031 -0.573,-0.12 -0.83,-0.26c-0.958,-0.581 -1.402,-1.749 -1.07,-2.82l1.12,-0.19Zm60.67,-1.91l4,1.26l-0.29,1l-1.49,-0.44l-0.48,1.64l1.5,0.45l-0.28,1l-4.09,-1.21l0.29,-1l1.71,0.51l0.48,-1.65l-1.72,-0.51l0.37,-1.05Zm0.26,-2l4.21,0.56l-0.13,1.05l-4.22,-0.56l0.14,-1.05Zm1.39,-6.81c-0.127,0.224 -0.234,0.458 -0.32,0.7c-0.055,0.182 -0.082,0.37 -0.08,0.56c-0.006,0.157 0.04,0.311 0.13,0.44c0.066,0.101 0.179,0.162 0.3,0.16c0.17,-0 0.36,-0.21 0.57,-0.61l0.08,-0.15l0.15,-0.3c0.119,-0.258 0.297,-0.484 0.52,-0.66c0.191,-0.149 0.427,-0.23 0.67,-0.23c0.328,-0.021 0.647,0.121 0.85,0.38c0.233,0.281 0.36,0.635 0.36,1c0.014,0.173 0.014,0.347 0,0.52c-0.036,0.207 -0.086,0.41 -0.15,0.61l-1,-0c0.11,-0.199 0.204,-0.406 0.28,-0.62c0.015,-0.143 0.011,-0.288 -0.01,-0.43c0.005,-0.124 -0.03,-0.247 -0.1,-0.35c-0.056,-0.081 -0.151,-0.127 -0.25,-0.12c-0.077,0 -0.152,0.029 -0.21,0.08c-0.071,0.065 -0.129,0.143 -0.17,0.23l-0.26,0.53c-0.148,0.336 -0.358,0.642 -0.62,0.9c-0.198,0.153 -0.44,0.237 -0.69,0.24c-0.377,0.018 -0.744,-0.133 -1,-0.41c-0.278,-0.325 -0.428,-0.742 -0.42,-1.17c-0.013,-0.18 -0.013,-0.36 0,-0.54c0.032,-0.216 0.078,-0.43 0.14,-0.64l1.23,-0.12Zm-3.12,-7.74l4,-1.42l0.37,1.08c0.1,0.265 0.171,0.54 0.21,0.82c0.04,0.195 0.04,0.395 0,0.59c-0.047,0.186 -0.14,0.358 -0.27,0.5c-0.123,0.136 -0.278,0.239 -0.45,0.3c-0.241,0.074 -0.499,0.074 -0.74,-0c-0.25,-0.079 -0.472,-0.228 -0.64,-0.43l-1.29,1.89l-0.39,-1.14l1.19,-1.68l0,-0.14l-1.57,0.56l-0.42,-0.93Zm3.67,-0l-0.1,-0.19l-1.1,0.39l0.07,0.21c0.056,0.21 0.179,0.396 0.35,0.53c0.09,0.054 0.193,0.083 0.298,0.083c0.24,-0 0.456,-0.149 0.542,-0.373c0.029,-0.232 -0.005,-0.467 -0.1,-0.68l0.04,0.03Zm-5.62,-4l3.76,-2l0.54,1.05c0.359,0.601 0.497,1.308 0.39,2c-0.238,0.962 -1.12,1.634 -2.11,1.61c-0.376,-0.025 -0.738,-0.149 -1.05,-0.36c-0.194,-0.136 -0.369,-0.297 -0.52,-0.48c-0.18,-0.235 -0.337,-0.486 -0.47,-0.75l-0.54,-1.07Zm1.29,0.49l0.1,0.21c0.159,0.355 0.439,0.642 0.79,0.81c0.325,0.143 0.701,0.113 1,-0.08c0.314,-0.145 0.54,-0.431 0.61,-0.77c0.071,-0.383 -0.004,-0.779 -0.21,-1.11l-0.1,-0.21l-2.19,1.15Zm-2.51,-6c0.242,-0.181 0.517,-0.314 0.81,-0.39c0.293,-0.065 0.597,-0.065 0.89,-0c0.289,0.04 0.565,0.142 0.81,0.3c0.499,0.323 0.857,0.823 1,1.4c0.06,0.294 0.06,0.596 0,0.89c-0.039,0.295 -0.142,0.578 -0.3,0.83c-0.163,0.26 -0.373,0.487 -0.62,0.67c-0.205,0.15 -0.43,0.268 -0.67,0.35c-0.234,0.082 -0.482,0.119 -0.73,0.11c-0.349,-0.009 -0.691,-0.098 -1,-0.26c-0.566,-0.31 -0.976,-0.843 -1.13,-1.47c-0.06,-0.29 -0.06,-0.59 0,-0.88c0.035,-0.299 0.138,-0.586 0.3,-0.84c0.147,-0.283 0.351,-0.531 0.6,-0.73l0.04,0.02Zm0.63,0.88c-0.279,0.2 -0.475,0.495 -0.55,0.83c-0.074,0.312 -0.008,0.641 0.18,0.9c0.182,0.261 0.473,0.426 0.79,0.45c0.34,0.029 0.68,-0.071 0.95,-0.28c0.281,-0.202 0.477,-0.502 0.55,-0.84c0.078,-0.312 0.012,-0.642 -0.18,-0.9c-0.183,-0.255 -0.467,-0.419 -0.78,-0.45c-0.339,-0.028 -0.677,0.068 -0.95,0.27l-0.01,0.02Zm-8.4,-6c0.05,0.099 0.114,0.189 0.19,0.27c0.052,0.064 0.113,0.122 0.18,0.17c0.128,0.113 0.309,0.148 0.47,0.09c0.204,-0.112 0.374,-0.278 0.49,-0.48l1.5,-2.21l0.87,0.61l-1.64,2.4c-0.219,0.368 -0.582,0.629 -1,0.72c-0.409,0.056 -0.824,-0.064 -1.14,-0.33c-0.078,-0.051 -0.151,-0.108 -0.22,-0.17c-0.074,-0.063 -0.141,-0.133 -0.2,-0.21l0.5,-0.86Zm-4.16,-1.36l2.14,-3.89l0.09,0.05l1.16,3.55l1.15,-2.08l0.83,0.48l-2.19,3.89l-0.08,-0l-1.17,-3.6l-1.13,2.06l-0.8,-0.46Z" style="fill-rule:nonzero;"/><path d="M66.71,54.24c-0.302,-0.167 -0.491,-0.486 -0.491,-0.832c0,-0.404 0.258,-0.766 0.641,-0.898c0.231,-0.081 0.486,-0.059 0.7,0.06c0.22,0.113 0.383,0.312 0.45,0.55c0.074,0.238 0.056,0.495 -0.05,0.72c-0.11,0.22 -0.305,0.386 -0.54,0.46c-0.234,0.081 -0.492,0.059 -0.71,-0.06Zm-0.95,4.34c0.092,-0.063 0.179,-0.133 0.26,-0.21c0.067,-0.053 0.125,-0.117 0.17,-0.19c0.114,-0.145 0.14,-0.34 0.07,-0.51c-0.122,-0.215 -0.302,-0.392 -0.52,-0.51l-2.36,-1.55l0.59,-0.92l2.57,1.68c0.382,0.219 0.665,0.577 0.79,1c0.071,0.428 -0.03,0.866 -0.28,1.22c-0.054,0.081 -0.114,0.158 -0.18,0.23l-0.2,0.22l-0.91,-0.46Zm-2.51,4.52l-3.52,-3.1l0.07,-0.07l3.84,-0.4l-1.88,-1.66l0.66,-0.77l3.58,3.12l-0.06,0.07l-3.84,0.4l1.85,1.65l-0.7,0.76Zm-4.25,3.81l-1.3,-5.12l4.75,2.09l-0.86,0.75l-0.59,-0.36l-1.39,1.22l0.2,0.7l-0.81,0.72Zm0.35,-2.23l0.9,-0.78l-1.37,-0.71l0.47,1.49Zm-6.35,-1.3l0.34,-0.22l0.79,0.28l0.08,-0.85l0.35,-0.22l0.09,1.25l-0.58,0.37l-1.07,-0.61Zm2.15,4.43c0.265,-0 0.53,-0.027 0.79,-0.08c0.187,-0.044 0.366,-0.119 0.53,-0.22c0.14,-0.083 0.248,-0.21 0.31,-0.36c0.064,-0.111 0.064,-0.249 -0,-0.36c-0.1,-0.16 -0.38,-0.23 -0.85,-0.2l-0.52,0c-0.293,0.029 -0.589,-0.015 -0.86,-0.13c-0.226,-0.094 -0.418,-0.254 -0.55,-0.46c-0.199,-0.294 -0.248,-0.665 -0.13,-1c0.119,-0.368 0.368,-0.681 0.7,-0.88c0.149,-0.091 0.307,-0.168 0.47,-0.23c0.203,-0.078 0.41,-0.145 0.62,-0.2l0.57,0.91c-0.231,0.005 -0.462,0.029 -0.69,0.07c-0.171,0.025 -0.335,0.086 -0.48,0.18c-0.114,0.061 -0.202,0.16 -0.25,0.28c-0.05,0.094 -0.05,0.206 -0,0.3c0.044,0.064 0.107,0.113 0.18,0.14c0.099,0.017 0.201,0.017 0.3,-0l0.61,-0c0.376,-0.042 0.756,-0.012 1.12,0.09c0.244,0.106 0.45,0.284 0.59,0.51c0.227,0.341 0.296,0.764 0.19,1.16c-0.126,0.422 -0.409,0.779 -0.79,1c-0.154,0.103 -0.319,0.19 -0.49,0.26c-0.208,0.086 -0.422,0.157 -0.64,0.21l-0.73,-0.99Zm-3,2.93l-1.85,-4.2l2.54,-1.16l0.38,0.87l-1.63,0.75l0.34,0.76l1.35,-0.62l0.38,0.86l-1.35,0.62l0.36,0.83l1.61,-0.74l0.39,0.89l-2.52,1.14Zm-3.55,1.26l-1.14,-3.44l-1.36,0.44l-0.3,-0.91l3.74,-1.28l0.3,0.91l-1.36,0.47l1.14,3.44l-1.02,0.37Zm-9.88,1.51l-0.34,-4.51l1.06,-0.08l0.12,1.68l1.74,-0.13l-0.12,-1.68l1,-0.09l0.34,4.59l-1,0.08l-0.15,-1.92l-1.73,0.13l0.14,1.92l-1.06,0.01Zm-4.61,-0.38l0.34,-4.58l1.39,0.11c0.42,0.001 0.83,0.134 1.17,0.38c0.252,0.227 0.379,0.563 0.34,0.9c-0.013,0.213 -0.093,0.416 -0.23,0.58c-0.157,0.171 -0.363,0.289 -0.59,0.34c0.252,0.068 0.472,0.224 0.62,0.44c0.348,0.571 0.184,1.325 -0.37,1.7c-0.449,0.222 -0.955,0.302 -1.45,0.23l-1.22,-0.1Zm1.18,-2.69l0.36,-0c0.177,0.021 0.357,-0.018 0.51,-0.11c0.124,-0.087 0.198,-0.229 0.2,-0.38c0.027,-0.146 -0.026,-0.295 -0.14,-0.39c-0.153,-0.105 -0.334,-0.161 -0.52,-0.16l-0.33,-0l-0.08,1.04Zm-0.14,1.94l0.45,-0c0.179,0.028 0.362,-0.016 0.51,-0.12c0.138,-0.1 0.22,-0.26 0.22,-0.43c0.027,-0.159 -0.029,-0.322 -0.15,-0.43c-0.137,-0.123 -0.316,-0.191 -0.5,-0.19l-0.45,-0l-0.08,1.17Zm-9.15,-1.45l3.67,-3.74l0.07,-0l0.65,5.22l-1.07,-0.37l-0.06,-0.72l-1.74,-0.6l-0.49,0.54l-1.03,-0.33Zm2,-0.84l1.13,0.39l-0.11,-1.56l-1.02,1.17Zm-5.82,-1.09l2.05,-4.1l0.95,0.49l-0.89,1.79l2.22,-1.1l1.15,0.59l-2.49,1.17l0.56,3l-1.16,-0.6l-0.49,-2.63l-0.95,1.89l-0.95,-0.5Zm-1.09,-6.22l-1.43,2.06c-0.198,0.249 -0.317,0.552 -0.34,0.87c0.012,0.263 0.155,0.504 0.38,0.64c0.19,0.162 0.45,0.218 0.69,0.15c0.253,-0.094 0.468,-0.27 0.61,-0.5l1.5,-2.16l0.78,0.57l-1.49,2.15c-0.288,0.484 -0.749,0.842 -1.29,1c-1.068,0.131 -2.07,-0.587 -2.29,-1.64c-0.047,-0.561 0.121,-1.119 0.47,-1.56l1.5,-2.16l0.91,0.58Zm-7.38,-0.54l3.11,-3.34l0.87,0.84c0.538,0.473 0.892,1.122 1,1.83c0.012,0.092 0.017,0.184 0.017,0.277c0,1.212 -0.997,2.21 -2.21,2.21c-0.167,-0 -0.334,-0.019 -0.497,-0.057c-0.241,-0.059 -0.471,-0.157 -0.68,-0.29c-0.256,-0.165 -0.494,-0.356 -0.71,-0.57l-0.9,-0.9Zm1.44,-0l0.17,0.17c0.265,0.281 0.618,0.464 1,0.52c0.36,0.007 0.705,-0.147 0.94,-0.42c0.267,-0.26 0.404,-0.628 0.37,-1c-0.069,-0.389 -0.27,-0.743 -0.57,-1l-0.17,-0.17l-1.74,1.9Zm-4.15,-3.43l3.56,-2.81l1.72,2.22l-0.73,0.59l-1.07,-1.39l-0.65,0.52l0.93,1.18l-0.73,0.59l-0.92,-1.19l-0.7,0.57l1.09,1.4l-0.74,0.6l-1.76,-2.28Zm-0,-4.71c0.21,-0.129 0.465,-0.161 0.7,-0.09c0.239,0.064 0.441,0.223 0.56,0.44c0.125,0.215 0.157,0.471 0.09,0.71c-0.136,0.486 -0.64,0.781 -1.13,0.66c-0.4,-0.121 -0.675,-0.492 -0.675,-0.909c0,-0.331 0.173,-0.639 0.455,-0.811Z" style="fill-rule:nonzero;"/><path d="M309.97,66.32l0,-8.71l1.95,-0l0,3.2l3.18,-0l0,-3.2l1.94,-0l0,8.71l-1.94,-0l0,-3.65l-3.18,-0l0,3.65l-1.95,-0Z"/><rect x="306.07" y="57.61" width="1.97" height="8.71"/><path d="M299.89,66.32l0,-8.71l1.97,-0l0,6.84l3.22,0l-0,1.87l-5.19,-0Z"/><path d="M293.09,63.86c0.403,0.277 0.836,0.508 1.29,0.69c0.319,0.123 0.658,0.191 1,0.2c0.293,0.015 0.582,-0.069 0.82,-0.24c0.198,-0.139 0.314,-0.368 0.31,-0.61c-0,-0.35 -0.36,-0.76 -1.1,-1.2l-0.28,-0.17l-0.55,-0.33c-0.486,-0.264 -0.901,-0.641 -1.21,-1.1c-0.262,-0.416 -0.398,-0.899 -0.39,-1.39c-0.018,-0.656 0.257,-1.287 0.75,-1.72c0.538,-0.462 1.232,-0.701 1.94,-0.67c0.336,-0.002 0.671,0.031 1,0.1c0.386,0.092 0.767,0.205 1.14,0.34l-0,2c-0.357,-0.237 -0.736,-0.441 -1.13,-0.61c-0.288,-0.125 -0.596,-0.196 -0.91,-0.21c-0.235,-0.017 -0.469,0.051 -0.66,0.19c-0.16,0.119 -0.25,0.311 -0.24,0.51c0.002,0.151 0.051,0.298 0.14,0.42c0.113,0.152 0.26,0.276 0.43,0.36l1,0.57c0.605,0.341 1.136,0.8 1.56,1.35c0.286,0.417 0.432,0.914 0.42,1.42c0.034,0.772 -0.265,1.523 -0.82,2.06c-0.591,0.545 -1.377,0.829 -2.18,0.79c-0.336,-0.005 -0.671,-0.042 -1,-0.11c-0.404,-0.074 -0.801,-0.178 -1.19,-0.31l-0.14,-2.33Z"/><path d="M288.29,57.34l-0.12,0l-4,8.54l-0.21,0.45l2,-0l0.54,-1.28l3.35,-0l0.52,1.28l2.06,-0l-4.14,-8.99Zm-1.24,6.21l1.09,-2.73l1.08,2.73l-2.17,-0Z"/><path d="M284.16,65.88l-2.16,-3.3c0.465,-0.222 0.86,-0.568 1.14,-1c0.271,-0.43 0.406,-0.932 0.39,-1.44c0.003,-0.375 -0.083,-0.745 -0.25,-1.08c-0.165,-0.342 -0.408,-0.64 -0.71,-0.87c-0.299,-0.222 -0.639,-0.381 -1,-0.47c-0.52,-0.106 -1.05,-0.153 -1.58,-0.14l-2.12,0l0,8.72l1.91,0l0,-3.4l0.22,-0l2.2,3.43l2.25,-0l-0.29,-0.45Zm-2.87,-4.59c-0.337,0.232 -0.742,0.345 -1.15,0.32l-0.41,-0l0,-2.41l0.32,0c0.435,-0.036 0.872,0.061 1.25,0.28c0.274,0.213 0.418,0.555 0.38,0.9c0.022,0.348 -0.123,0.686 -0.39,0.91Z"/><path d="M275.12,58.77c-1.02,-0.824 -2.311,-1.238 -3.62,-1.16l-2.19,0l0,8.72l2.19,0c0.557,0.007 1.114,-0.047 1.66,-0.16c0.437,-0.099 0.856,-0.268 1.24,-0.5c0.637,-0.371 1.162,-0.906 1.52,-1.55c0.353,-0.661 0.532,-1.401 0.52,-2.15c0.06,-1.209 -0.425,-2.384 -1.32,-3.2Zm-1.41,5c-0.56,0.464 -1.274,0.699 -2,0.66l-0.43,-0l0,-5l0.43,-0c0.728,-0.041 1.444,0.199 2,0.67c0.966,1.017 0.966,2.633 0,3.65l0,0.02Z"/><path d="M267.92,60.15c-0.198,-0.557 -0.508,-1.067 -0.91,-1.5c-0.383,-0.424 -0.849,-0.765 -1.37,-1c-1.578,-0.688 -3.432,-0.283 -4.58,1c-0.408,0.436 -0.725,0.949 -0.93,1.51c-0.427,1.165 -0.427,2.445 0,3.61c0.208,0.56 0.524,1.073 0.93,1.51c0.383,0.419 0.845,0.759 1.36,1c0.502,0.229 1.048,0.349 1.6,0.35c0.653,0.001 1.295,-0.16 1.87,-0.47c0.59,-0.322 1.099,-0.774 1.49,-1.32c0.282,-0.4 0.498,-0.842 0.64,-1.31c0.145,-0.5 0.219,-1.019 0.22,-1.54c0.011,-0.628 -0.097,-1.253 -0.32,-1.84Zm-2.34,3.72c-0.367,0.491 -0.947,0.777 -1.56,0.77c-0.606,-0.008 -1.177,-0.292 -1.55,-0.77c-0.825,-1.136 -0.825,-2.684 -0,-3.82c0.379,-0.469 0.952,-0.742 1.555,-0.742c0.603,-0 1.176,0.273 1.555,0.742c0.432,0.544 0.655,1.226 0.63,1.92c0.024,0.688 -0.2,1.363 -0.63,1.9Z"/><path d="M248.75,66.83l0,-9.44l5.51,0l0,1.94l-3.44,0l0,1.71l2.95,0l0,1.93l-2.95,0l0,1.87l3.49,0l0,1.99l-5.56,0Z"/><path d="M242.42,64.85c0.202,0.099 0.413,0.18 0.63,0.24c0.158,0.053 0.323,0.08 0.49,0.08c0.36,0.029 0.709,-0.14 0.91,-0.44c0.216,-0.465 0.309,-0.978 0.27,-1.49l-0,-5.85l2.15,0l-0,6.38c0.065,0.905 -0.222,1.801 -0.8,2.5c-0.604,0.608 -1.445,0.923 -2.3,0.86c-0.186,0.015 -0.374,0.015 -0.56,0c-0.196,-0.023 -0.389,-0.06 -0.58,-0.11l-0.21,-2.17Z"/><path d="M233.64,66.83l-0,-9.75l0.2,0l5.58,5.51l-0,-5.2l1.97,0l-0,9.8l-0.19,0l-5.59,-5.51l0,5.15l-1.97,0Z"/><path d="M228.51,57.1l-0.14,0l-4.57,9.73l2.2,0l0.58,-1.38l3.63,0l0.57,1.38l2.22,0l-4.49,-9.73Zm-1.36,6.73l1.19,-3l1.17,3l-2.36,0Z"/><path d="M221.08,67.19l-0.15,0l-4.22,-9.8l2.26,0l2.11,5.16l2.13,-5.16l2.09,0l-4.22,9.8Z"/><path d="M216.2,60.13c-0.219,-0.6 -0.56,-1.148 -1,-1.61c-0.42,-0.453 -0.927,-0.817 -1.49,-1.07c-0.55,-0.248 -1.147,-0.374 -1.75,-0.37c-0.6,-0.004 -1.194,0.122 -1.74,0.37c-0.558,0.247 -1.059,0.608 -1.47,1.06c-0.435,0.474 -0.775,1.027 -1,1.63c-0.234,0.64 -0.35,1.318 -0.34,2c-0.014,0.682 0.101,1.361 0.34,2c0.225,0.603 0.565,1.156 1,1.63c0.413,0.456 0.918,0.82 1.48,1.07c0.543,0.247 1.133,0.374 1.73,0.37c0.699,-0.001 1.386,-0.177 2,-0.51c0.64,-0.341 1.191,-0.828 1.61,-1.42c0.31,-0.435 0.547,-0.918 0.7,-1.43c0.158,-0.539 0.239,-1.098 0.24,-1.66c0.027,-0.7 -0.078,-1.399 -0.31,-2.06Zm-2.53,4c-0.403,0.521 -1.026,0.827 -1.685,0.827c-0.659,0 -1.282,-0.306 -1.685,-0.827c-0.904,-1.228 -0.904,-2.912 0,-4.14c0.403,-0.521 1.026,-0.827 1.685,-0.827c0.659,-0 1.282,0.306 1.685,0.827c0.465,0.591 0.706,1.328 0.68,2.08c0.033,0.759 -0.208,1.505 -0.68,2.1l0,-0.04Z"/><path d="M198.71,66.83l4.45,-7.47l-3.99,0l0.33,-1.97l7.11,0l-4.44,7.44l4.44,0l-0.34,2l-7.56,0Z"/><path d="M198.79,66.69l-4.41,-9.59l-0.13,0l-4.33,9.24l-0.23,0.49l2.15,0l0.58,-1.38l3.63,0l0.56,1.38l2.24,0l-0.06,-0.14Zm-5.79,-2.86l1.19,-3l1.16,3l-2.35,0Z"/><path d="M189.92,66.34l-2.41,-3.57c0.506,-0.223 0.937,-0.588 1.24,-1.05c0.294,-0.466 0.444,-1.009 0.43,-1.56c0.009,-0.83 -0.382,-1.616 -1.05,-2.11c-0.321,-0.243 -0.689,-0.417 -1.08,-0.51c-0.562,-0.115 -1.136,-0.165 -1.71,-0.15l-2.34,0l0,9.44l2.07,0l0,-3.71l0.3,-0l2.39,3.71l2.44,-0l-0.28,-0.49Zm-3.13,-5c-0.362,0.245 -0.794,0.364 -1.23,0.34l-0.45,-0l0,-2.57l0.35,-0c0.467,-0.038 0.934,0.067 1.34,0.3c0.303,0.239 0.461,0.617 0.42,1c0.017,0.373 -0.143,0.732 -0.43,0.97l0,-0.04Z"/><path d="M181,62.59c-0.316,-0.412 -0.771,-0.697 -1.28,-0.8c0.438,-0.151 0.824,-0.425 1.11,-0.79c0.606,-0.968 0.419,-2.246 -0.44,-3c-0.703,-0.446 -1.53,-0.656 -2.36,-0.6l-2.77,0l0,9.44l2.43,0c0.99,0.071 1.978,-0.174 2.82,-0.7c0.647,-0.456 1.024,-1.208 1,-2c0.017,-0.56 -0.164,-1.109 -0.51,-1.55Zm-3.76,-3.59l0.65,0c0.372,-0.028 0.743,0.063 1.06,0.26c0.234,0.184 0.361,0.473 0.34,0.77c0.016,0.315 -0.118,0.619 -0.36,0.82c-0.289,0.211 -0.643,0.313 -1,0.29l-0.71,0l0.02,-2.14Zm1.89,5.81c-0.28,0.232 -0.637,0.35 -1,0.33l-0.89,0l0,-2.45l0.89,0c0.359,-0.017 0.713,0.093 1,0.31c0.247,0.224 0.38,0.547 0.36,0.88c0.023,0.342 -0.109,0.676 -0.36,0.91l0,0.02Z"/><path d="M173.46,60.13c-0.432,-1.184 -1.317,-2.149 -2.46,-2.68c-1.114,-0.494 -2.386,-0.494 -3.5,0c-0.57,0.243 -1.081,0.604 -1.5,1.06c-0.438,0.472 -0.778,1.026 -1,1.63c-0.234,0.64 -0.35,1.318 -0.34,2c-0.014,0.682 0.101,1.361 0.34,2c0.222,0.604 0.562,1.158 1,1.63c0.412,0.453 0.912,0.818 1.47,1.07c0.546,0.248 1.14,0.374 1.74,0.37c0.699,-0.001 1.386,-0.177 2,-0.51c0.64,-0.341 1.191,-0.828 1.61,-1.42c0.31,-0.435 0.547,-0.918 0.7,-1.43c0.155,-0.54 0.232,-1.099 0.23,-1.66c0.034,-0.699 -0.065,-1.398 -0.29,-2.06Zm-2.53,4c-0.403,0.521 -1.026,0.827 -1.685,0.827c-0.659,0 -1.282,-0.306 -1.685,-0.827c-0.904,-1.228 -0.904,-2.912 0,-4.14c0.397,-0.526 1.021,-0.834 1.68,-0.83c0.662,-0.002 1.287,0.305 1.69,0.83c0.461,0.593 0.699,1.33 0.67,2.08c0.037,0.758 -0.201,1.504 -0.67,2.1l0,-0.04Z"/><path d="M154.74,57.12l-0.14,-0l-4.6,9.73l2.16,-0l0.58,-1.37l3.63,-0l0.56,1.37l2.24,-0l-4.43,-9.73Zm-1.36,6.73l1.19,-3l1.16,3l-2.35,-0Z"/><path d="M142.17,66.85l4.45,-7.46l-3.99,0l0.34,-1.98l7.1,0l-4.44,7.44l4.44,0l-0.34,2l-7.56,0Z"/><path d="M135.75,62.8c0.496,-0.215 0.924,-0.561 1.24,-1c0.295,-0.47 0.444,-1.016 0.43,-1.57c0.002,-0.407 -0.094,-0.808 -0.28,-1.17c-0.179,-0.367 -0.443,-0.686 -0.77,-0.93c-0.32,-0.245 -0.688,-0.418 -1.08,-0.51c-0.561,-0.125 -1.136,-0.179 -1.71,-0.16l-2.3,-0l0,9.44l2.07,0l0,-3.76l0.3,-0l2.35,3.71l2.44,-0l-2.69,-4.05Zm-0.75,-1.4c-0.363,0.25 -0.799,0.373 -1.24,0.35l-0.45,-0l0,-2.62l0.35,-0c0.471,-0.034 0.941,0.074 1.35,0.31c0.302,0.238 0.458,0.618 0.41,1c0.013,0.367 -0.142,0.721 -0.42,0.96Z"/><path d="M126.14,57.12l-0.14,-0l-4.56,9.73l2.15,-0l0.58,-1.37l3.62,-0l0.57,1.37l2.24,-0l-4.46,-9.73Zm-1.34,6.73l1.18,-3l1.17,3l-2.35,-0Z"/><path d="M117.78,66.85l0,-7.46l-2.85,0l0,-1.98l7.81,0l-0,1.98l-2.83,0l-0,7.46l-2.13,0Z"/><path d="M106.16,66.85l0,-9.74l0.21,0l5.57,5.51l0,-5.21l1.97,0l0,9.8l-0.19,0l-5.59,-5.51l0,5.15l-1.97,0Z"/><path d="M98.97,66.85l0,-9.44l5.51,0l0,1.95l-3.43,0l0,1.71l2.94,0l0,1.93l-2.94,0l0,1.86l3.48,0l0,1.99l-5.56,0Z"/><path d="M97.31,60.4c-0.337,-0.378 -0.736,-0.696 -1.18,-0.94c-0.387,-0.198 -0.815,-0.301 -1.25,-0.3c-0.722,-0.023 -1.415,0.287 -1.88,0.84c-0.495,0.593 -0.752,1.349 -0.72,2.12c-0.037,0.766 0.22,1.518 0.72,2.1c0.47,0.53 1.152,0.823 1.86,0.8c0.469,-0.002 0.933,-0.105 1.36,-0.3c0.492,-0.227 0.944,-0.531 1.34,-0.9l-0.13,2.51c-1.221,0.857 -2.783,1.073 -4.19,0.58c-0.487,-0.18 -0.94,-0.44 -1.34,-0.77c-0.568,-0.475 -1.019,-1.074 -1.32,-1.75c-0.312,-0.709 -0.469,-1.476 -0.46,-2.25c-0.012,-0.682 0.103,-1.36 0.34,-2c0.225,-0.603 0.565,-1.156 1,-1.63c0.437,-0.448 0.961,-0.802 1.54,-1.04c0.57,-0.252 1.187,-0.381 1.81,-0.38c0.489,-0 0.975,0.078 1.44,0.23c0.467,0.15 0.906,0.377 1.3,0.67l-0.24,2.41Z"/><path d="M288.98,49.23l0,-34.58l7.73,-0l-0,12.7l12.64,-0l0,-12.7l7.69,-0l0,34.58l-7.69,-0l0,-14.5l-12.64,-0l-0,14.5l-7.73,-0Z"/><path d="M283.68,33.72c-1.165,-1.502 -2.823,-2.546 -4.68,-2.95c1.585,-0.54 2.976,-1.535 4,-2.86c0.912,-1.319 1.379,-2.897 1.33,-4.5c0.161,-2.528 -0.932,-4.98 -2.92,-6.55c-2,-1.48 -4.84,-2.21 -8.66,-2.21l-10.11,0l0,34.58l8.9,0c4.567,0 8.017,-0.847 10.35,-2.54c2.359,-1.753 3.674,-4.587 3.49,-7.52c0.062,-1.956 -0.537,-3.877 -1.7,-5.45Zm-13.9,-13.2l2.41,0c1.346,-0.109 2.692,0.206 3.85,0.9c0.866,0.68 1.333,1.753 1.24,2.85c0.067,1.149 -0.416,2.263 -1.3,3c-1.042,0.766 -2.319,1.145 -3.61,1.07l-2.59,0l0,-7.82Zm6.94,21.25c-1.037,0.871 -2.369,1.311 -3.72,1.23l-3.25,0l0,-8.91l3.25,0c1.341,-0.09 2.669,0.316 3.73,1.14c0.898,0.813 1.381,1.991 1.31,3.2c0.072,1.253 -0.411,2.475 -1.32,3.34Z"/><path d="M227.25,13.58l-0.5,0l-15.45,33l-1.3,2.65l7.88,0l2.12,-5l13.31,0l2.07,5l8.19,0l-16.32,-35.65Zm-4.95,24.67l4.36,-10.84l4.26,10.84l-8.62,0Z"/><path d="M178.4,49.23l0,-34.58l7.73,-0l0,15.05l10.83,-15.05l9.32,-0l-12.37,16.45l13.34,18.13l-9.44,-0l-11.68,-15.93l0,15.93l-7.73,-0Z"/><path d="M154.18,14.65l0,19c0,3.05 0.54,5.34 1.6,6.85c1.103,1.546 2.935,2.411 4.83,2.28c1.835,0.109 3.613,-0.683 4.76,-2.12c1.202,-1.823 1.775,-3.991 1.63,-6.17l0,-19.84l7,-0l0,19.84c0,4.987 -1.217,8.88 -3.65,11.68c-2.433,2.8 -5.803,4.193 -10.11,4.18c-4.36,0 -7.75,-1.383 -10.17,-4.15c-2.42,-2.76 -3.63,-6.66 -3.63,-11.66l0,-19.89l7.74,-0Z"/><path d="M138.28,19.28c-3.46,-3.087 -8.253,-4.63 -14.38,-4.63l-8.71,0l0,34.58l8.71,-0c2.205,0.039 4.408,-0.162 6.57,-0.6c1.734,-0.407 3.394,-1.081 4.92,-2c2.513,-1.477 4.585,-3.601 6,-6.15c1.405,-2.627 2.115,-5.571 2.06,-8.55c0.04,-5.34 -1.7,-9.57 -5.17,-12.65Zm-5.6,19.9c-1.93,1.76 -4.61,2.63 -8,2.63l-1.73,-0l0,-19.81l1.73,-0c3.42,-0 6.1,0.89 8,2.65c1.974,1.886 3.03,4.543 2.89,7.27c0.151,2.726 -0.907,5.384 -2.89,7.26Z"/><path d="M90.14,49.23l0,-34.58l20.19,-0l0,7.13l-12.6,-0l0,6.25l10.8,-0l0,7.09l-10.8,-0l0,6.83l12.79,0l-0,7.28l-20.38,-0Z"/></g></g></svg>