<svg width="32" height="32" viewBox="0 0 32 32" fill="none" xmlns="http://www.w3.org/2000/svg">
<g clip-path="url(#clip0_2_231)">
<path d="M5.33334 10.6666C5.33334 9.2521 5.89525 7.89554 6.89544 6.89535C7.89563 5.89515 9.25219 5.33325 10.6667 5.33325H21.3333C22.7478 5.33325 24.1044 5.89515 25.1046 6.89535C26.1048 7.89554 26.6667 9.2521 26.6667 10.6666V21.3333C26.6667 22.7477 26.1048 24.1043 25.1046 25.1045C24.1044 26.1047 22.7478 26.6666 21.3333 26.6666H10.6667C9.25219 26.6666 7.89563 26.1047 6.89544 25.1045C5.89525 24.1043 5.33334 22.7477 5.33334 21.3333V10.6666Z" stroke="#78350F" stroke-width="1.33333" stroke-linecap="round" stroke-linejoin="round"/>
<path d="M12 16C12 17.0609 12.4214 18.0783 13.1716 18.8284C13.9217 19.5786 14.9391 20 16 20C17.0609 20 18.0783 19.5786 18.8284 18.8284C19.5786 18.0783 20 17.0609 20 16C20 14.9391 19.5786 13.9217 18.8284 13.1716C18.0783 12.4214 17.0609 12 16 12C14.9391 12 13.9217 12.4214 13.1716 13.1716C12.4214 13.9217 12 14.9391 12 16Z" stroke="#78350F" stroke-width="1.33333" stroke-linecap="round" stroke-linejoin="round"/>
<path d="M22 10V10.0133" stroke="#78350F" stroke-width="1.33333" stroke-linecap="round" stroke-linejoin="round"/>
</g>
<defs>
<clipPath id="clip0_2_231">
<rect width="32" height="32" rx="8" fill="white"/>
</clipPath>
</defs>
</svg>
