<?xml version="1.0" encoding="UTF-8" standalone="no"?><!DOCTYPE svg PUBLIC "-//W3C//DTD SVG 1.1//EN" "http://www.w3.org/Graphics/SVG/1.1/DTD/svg11.dtd"><svg width="100%" height="100%" viewBox="0 0 500 500" version="1.1" xmlns="http://www.w3.org/2000/svg" xmlns:xlink="http://www.w3.org/1999/xlink" xml:space="preserve" xmlns:serif="http://www.serif.com/" style="fill-rule:evenodd;clip-rule:evenodd;stroke-linejoin:round;stroke-miterlimit:2;"><path d="M370.036,109.341c46.642,40.309 76.176,99.89 76.176,166.314c0,67.605 -30.594,128.122 -78.683,168.449l-41.201,-41.202c30.239,-23.771 51.815,-58.095 59.159,-97.404l-81.92,-0c-11.982,30.9 -42.007,52.829 -77.113,52.829c-45.628,0 -82.673,-37.044 -82.673,-82.672c0,-45.629 37.045,-82.673 82.673,-82.673c36.023,-0 66.697,23.09 78.015,55.27l81.455,-0c-6.843,-40.039 -28.42,-75.078 -58.941,-99.327l43.053,-39.584Zm-295.106,7.206l40.384,41.582c-5.641,5.337 -10.9,11.076 -15.728,17.171l-45.798,-35.534c6.493,-8.237 13.562,-15.998 21.142,-23.219Zm48.924,-35.245l26.512,51.566c-7.217,3.857 -14.107,8.244 -20.618,13.11l-34.221,-46.789c8.943,-6.649 18.408,-12.635 28.327,-17.887Zm178.71,51.579c-7.496,-4.008 -15.345,-7.444 -23.488,-10.247l19.118,-54.742c16.267,5.624 31.669,13.104 45.944,22.183l-41.574,42.806Zm-126.921,-71.071l14.28,56.208c-9.235,2.135 -18.169,5.061 -26.725,8.704l-22.242,-53.548c11.125,-4.708 22.718,-8.527 34.687,-11.364Zm84.413,55.56c-10.84,-2.294 -22.081,-3.501 -33.602,-3.501c-7.799,0 -15.47,0.553 -22.972,1.622l-7.458,-57.501c9.946,-1.38 20.105,-2.094 30.43,-2.094c15.682,0 30.983,1.647 45.747,4.777l-12.145,56.697Z" style="fill:#fff;"/></svg>