<svg width="32" height="32" viewBox="0 0 32 32" fill="none" xmlns="http://www.w3.org/2000/svg">
<g clip-path="url(#clip0_2_81)">
<path d="M26.6667 22.6667V6.66667C26.6667 5.172 25.4947 4 24 4C22.5053 4 21.3333 5.172 21.3333 6.66667V22.6667L24 25.3333L26.6667 22.6667Z" stroke="#78350F" stroke-width="1.33333" stroke-linecap="round" stroke-linejoin="round"/>
<path d="M21.3333 9.33337H26.6667" stroke="#78350F" stroke-width="1.33333" stroke-linecap="round" stroke-linejoin="round"/>
<path d="M24 25.3333H6.66667C5.95942 25.3333 5.28115 25.0523 4.78105 24.5522C4.28095 24.0521 4 23.3739 4 22.6666C4 21.9594 4.28095 21.2811 4.78105 20.781C5.28115 20.2809 5.95942 20 6.66667 20H12C12.7072 20 13.3855 19.719 13.8856 19.2189C14.3857 18.7188 14.6667 18.0405 14.6667 17.3333C14.6667 16.626 14.3857 15.9478 13.8856 15.4477C13.3855 14.9476 12.7072 14.6666 12 14.6666H8" stroke="#78350F" stroke-width="1.33333" stroke-linecap="round" stroke-linejoin="round"/>
</g>
<defs>
<clipPath id="clip0_2_81">
<rect width="32" height="32" fill="white"/>
</clipPath>
</defs>
</svg>
